<svg width="100" height="100" viewBox="0 0 100 100" fill="none" xmlns="http://www.w3.org/2000/svg">
<rect width="100" height="100" rx="33" fill="#EFEFED"/>
<g clip-path="url(#clip0_1_19)">
<path d="M38.1262 23.1009C28.2779 24.0664 20.2227 28.5354 17.8502 34.3286C16.5813 37.501 17.1606 41.0045 19.4227 43.7907L20.1951 44.7562L20.0571 53.2528C19.9192 62.3012 19.9744 63.0184 20.7192 64.5633C21.464 66.1357 22.2365 66.6322 26.6227 68.4805C35.9745 72.4254 41.0504 74.2737 44.5539 75.0737C45.7677 75.3495 49.1884 75.7082 49.7401 75.5978C52.4987 75.1013 75.1472 70.0254 75.7265 69.7495C76.1679 69.5288 76.7196 69.0874 76.9955 68.7012C77.961 67.3771 77.9886 67.0736 78.0989 56.6184L78.2093 46.9907L78.6782 46.6321C79.6713 45.9149 80.9679 44.3976 81.492 43.3493C83.8093 38.632 81.2989 33.6665 75.092 30.632C67.9195 27.1285 57.6022 24.2595 48.3884 23.2112C46.2366 23.0181 39.9469 22.9078 38.1262 23.1009ZM45.8228 25.9147C48.8573 26.163 52.1125 26.632 55.6988 27.3768C59.9195 28.2871 59.8367 28.232 57.0229 28.563C52.5539 29.0872 48.416 30.3837 45.4366 32.1217C39.4504 35.5975 36.6642 41.1148 38.3745 45.9976C38.7331 47.0459 39.5607 48.2873 40.3883 49.0045C41.2159 49.7769 41.078 49.7769 38.7331 49.2252C35.2021 48.37 31.0089 46.6873 25.3537 43.901C22.1261 42.301 21.7951 42.1079 21.2985 41.3907C19.0916 38.1631 20.002 34.3286 23.7537 31.2941C28.7469 27.2664 36.9676 25.2802 45.8228 25.9147ZM65.6575 31.2941C72.0299 31.8734 77.1058 34.301 78.761 37.5286C79.4782 38.9355 79.561 40.4803 78.9817 41.7217C78.4575 42.8252 77.6851 43.7631 76.6368 44.4804C75.3127 45.3907 75.2023 45.8045 75.2023 49.8873C75.2023 51.8183 75.1472 56.3701 75.092 59.9563C75.0092 65.6943 74.9541 66.5495 74.7058 66.8529C74.4575 67.1564 72.3058 67.6805 61.9333 69.9702C55.0919 71.4874 49.2711 72.7288 48.9953 72.7288C48.1953 72.7288 47.6711 72.3702 47.2573 71.5426C46.8711 70.7702 46.8711 70.5495 46.8711 66.9357C46.8711 64.8391 46.8987 60.0667 46.9539 56.3149C47.0366 48.5356 47.1194 49.0321 45.4366 48.5356C42.7056 47.7631 41.1056 46.0528 40.8021 43.6528C40.3883 40.4803 43.3952 36.3975 47.7263 34.1906C52.416 31.8458 59.285 30.7423 65.6575 31.2941ZM25.2986 47.1562C32.1124 50.577 38.5676 52.6459 43.147 52.839L44.1125 52.8666L44.0849 58.4115C44.0573 61.4736 44.0021 65.2805 43.947 66.9081C43.8642 69.2529 43.8918 70.053 44.1125 70.853C44.3608 71.8461 44.3608 71.8461 44.0021 71.8461C42.4849 71.8461 24.6365 64.7012 23.7261 63.7357C22.871 62.8253 22.871 62.577 23.0089 54.0804C23.0916 49.7494 23.202 46.1907 23.2848 46.1907C23.3123 46.2183 24.2503 46.6597 25.2986 47.1562Z" fill="black"/>
<path d="M45.8228 25.9147C48.8573 26.163 52.1125 26.632 55.6988 27.3768C59.9195 28.2871 59.8367 28.232 57.0229 28.563C52.5539 29.0872 48.416 30.3837 45.4366 32.1217C39.4504 35.5975 36.6642 41.1148 38.3745 45.9976C38.7331 47.0459 39.5607 48.2873 40.3883 49.0045C41.2159 49.7769 41.078 49.7769 38.7331 49.2252C35.2021 48.37 31.0089 46.6873 25.3537 43.901C22.1261 42.301 21.7951 42.1079 21.2985 41.3907C19.0916 38.1631 20.002 34.3286 23.7537 31.2941C28.7469 27.2664 36.9676 25.2802 45.8228 25.9147Z" fill="black"/>
<path d="M25.2986 47.1562C32.1124 50.577 38.5676 52.6459 43.147 52.839L44.1125 52.8666L44.0849 58.4115C44.0573 61.4736 44.0021 65.2805 43.947 66.9081C43.8642 69.2529 43.8918 70.053 44.1125 70.853C44.3608 71.8461 44.3608 71.8461 44.0021 71.8461C42.4849 71.8461 24.6365 64.7012 23.7261 63.7357C22.871 62.8253 22.871 62.577 23.0089 54.0804C23.0916 49.7494 23.202 46.1907 23.2848 46.1907C23.3123 46.2183 24.2503 46.6597 25.2986 47.1562Z" fill="black"/>
<path d="M48.1677 36.232C46.1815 37.0596 45.1608 37.9424 44.4435 39.5424C43.5884 41.4183 43.7815 43.6803 44.9677 45.4735C45.4918 46.2735 45.6573 46.3838 46.1539 46.3838C46.8711 46.3838 47.5884 45.8597 47.7263 45.1976C47.8091 44.839 47.6987 44.4252 47.2849 43.7079C46.7056 42.5769 46.5953 41.6389 47.0366 40.7286C47.3953 39.9562 48.416 39.1286 49.2711 38.8803C50.6505 38.4941 51.1746 37.2527 50.3746 36.232C49.9608 35.7079 49.4367 35.6803 48.1677 36.232Z" fill="black"/>
<path d="M52.5539 54.0252C51.7263 54.3563 51.6988 54.6321 51.5608 60.4529C51.4505 65.7495 51.4505 65.9426 51.7815 66.3564C52.2505 66.9357 53.3539 66.9357 53.9608 66.3839L54.3746 65.9977L54.485 60.6184C54.5953 54.7425 54.5677 54.5218 53.6574 54.108C53.1057 53.8045 53.0781 53.8045 52.5539 54.0252Z" fill="black"/>
</g>
<defs>
<clipPath id="clip0_1_19">
<rect width="66" height="53.122" fill="white" transform="translate(17 23)"/>
</clipPath>
</defs>
</svg>
